# xmcd CD database file
#
# Track frame offsets:
#	150
#	34580
#	57275
#	69225
#	83130
#	94600
#	107890
#	139955
#	150340
#	161415
#	172950
#	183305
#	194975
#	208800
#
# Disc length: 2953 seconds
#
# Revision: 3
# Processed by: cddbd v1.5.2PL0 Copyright (c) Steve Scherf et al.
# Submitted via: CDex 1.77
#
DISCID=bb0b870e
DTITLE=Ray Charles - The Ray Charles Collection: 20 Golden Greats
DYEAR=1984
DGENRE=Other
TTITLE0=Georgia On My Mind
TTITLE1=What'd I Say
TTITLE2=Can't You See Darling
TTITLE3=Someday
TTITLE4=She's On The Ball
TTITLE5=Alone In The City
TTITLE6=Come Rain Or Come Shine
TTITLE7=Ain't That Fine
TTITLE8=A Sentimental Blues
TTITLE9=If I Give You My Love
TTITLE10=Sitting On Top Of The World
TTITLE11=Ray Charles Blues
TTITLE12=I'm Going Down The River
TTITLE13=Baby Won't You Please Come Home
EXTD=YEAR: 1984
EXTT0=
EXTT1=
EXTT2=
EXTT3=
EXTT4=
EXTT5=
EXTT6=
EXTT7=
EXTT8=
EXTT9=
EXTT10=
EXTT11=
EXTT12=
EXTT13=
PLAYORDER=
